<?xml version="1.0" encoding="UTF-8" standalone="no"?><svg xmlns="http://www.w3.org/2000/svg" xmlns:xlink="http://www.w3.org/1999/xlink" contentStyleType="text/css" height="388px" preserveAspectRatio="none" style="width:564px;height:388px;background:#FFFFFF;" version="1.1" viewBox="0 0 564 388" width="564px" zoomAndPan="magnify"><defs/><g><text fill="#000000" font-family="sans-serif" font-size="14" font-weight="bold" lengthAdjust="spacing" textLength="359" x="104.75" y="29.5332">System Sequence Diagram (SSD) - List Popular Post</text><rect fill="#FFFFFF" height="165.7578" style="stroke:#181818;stroke-width:1.0;" width="10" x="28.5" y="131.2188"/><rect fill="#FFFFFF" height="30.3516" style="stroke:#181818;stroke-width:1.0;" width="10" x="286.5" y="153.5703"/><rect fill="#FFFFFF" height="73.7031" style="stroke:#181818;stroke-width:1.0;" width="10" x="286.5" y="214.2734"/><line style="stroke:#181818;stroke-width:0.5;stroke-dasharray:5.0,5.0;" x1="33" x2="33" y1="121.2188" y2="305.9766"/><line style="stroke:#181818;stroke-width:0.5;stroke-dasharray:5.0,5.0;" x1="291.5" x2="291.5" y1="121.2188" y2="305.9766"/><text fill="#000000" font-family="sans-serif" font-size="14" lengthAdjust="spacing" textLength="51" x="5" y="118.1426">Member</text><ellipse cx="33.5" cy="52.1094" fill="#E3E3E3" rx="8" ry="8" style="stroke:#181818;stroke-width:0.5;"/><path d="M33.5,60.1094 L33.5,87.1094 M20.5,68.1094 L46.5,68.1094 M33.5,87.1094 L20.5,102.1094 M33.5,87.1094 L46.5,102.1094 " fill="none" style="stroke:#181818;stroke-width:0.5;"/><text fill="#000000" font-family="sans-serif" font-size="14" lengthAdjust="spacing" textLength="51" x="5" y="319.5098">Member</text><ellipse cx="33.5" cy="331.0859" fill="#E3E3E3" rx="8" ry="8" style="stroke:#181818;stroke-width:0.5;"/><path d="M33.5,339.0859 L33.5,366.0859 M20.5,347.0859 L46.5,347.0859 M33.5,366.0859 L20.5,381.0859 M33.5,366.0859 L46.5,381.0859 " fill="none" style="stroke:#181818;stroke-width:0.5;"/><rect fill="#E3E3E3" height="31.6094" rx="2.5" ry="2.5" style="stroke:#181818;stroke-width:0.5;" width="64" x="259.5" y="88.6094"/><text fill="#000000" font-family="sans-serif" font-size="14" lengthAdjust="spacing" textLength="50" x="266.5" y="110.1426">:System</text><rect fill="#E3E3E3" height="31.6094" rx="2.5" ry="2.5" style="stroke:#181818;stroke-width:0.5;" width="64" x="259.5" y="304.9766"/><text fill="#000000" font-family="sans-serif" font-size="14" lengthAdjust="spacing" textLength="50" x="266.5" y="326.5098">:System</text><rect fill="#FFFFFF" height="165.7578" style="stroke:#181818;stroke-width:1.0;" width="10" x="28.5" y="131.2188"/><rect fill="#FFFFFF" height="30.3516" style="stroke:#181818;stroke-width:1.0;" width="10" x="286.5" y="153.5703"/><rect fill="#FFFFFF" height="73.7031" style="stroke:#181818;stroke-width:1.0;" width="10" x="286.5" y="214.2734"/><polygon fill="#181818" points="274.5,149.5703,284.5,153.5703,274.5,157.5703,278.5,153.5703" style="stroke:#181818;stroke-width:1.0;"/><line style="stroke:#181818;stroke-width:1.0;" x1="38.5" x2="280.5" y1="153.5703" y2="153.5703"/><text fill="#000000" font-family="sans-serif" font-size="13" font-weight="bold" lengthAdjust="spacing" textLength="7" x="45.5" y="148.7139">1</text><text fill="#000000" font-family="sans-serif" font-size="13" lengthAdjust="spacing" textLength="122" x="56.5" y="148.7139">asks to list the posts</text><polygon fill="#181818" points="49.5,179.9219,39.5,183.9219,49.5,187.9219,45.5,183.9219" style="stroke:#181818;stroke-width:1.0;"/><line style="stroke:#181818;stroke-width:1.0;stroke-dasharray:2.0,2.0;" x1="43.5" x2="290.5" y1="183.9219" y2="183.9219"/><text fill="#000000" font-family="sans-serif" font-size="13" font-weight="bold" lengthAdjust="spacing" textLength="7" x="55.5" y="179.0654">2</text><text fill="#000000" font-family="sans-serif" font-size="13" lengthAdjust="spacing" textLength="141" x="66.5" y="179.0654">displays the list of posts</text><polygon fill="#181818" points="274.5,210.2734,284.5,214.2734,274.5,218.2734,278.5,214.2734" style="stroke:#181818;stroke-width:1.0;"/><line style="stroke:#181818;stroke-width:1.0;" x1="38.5" x2="280.5" y1="214.2734" y2="214.2734"/><text fill="#000000" font-family="sans-serif" font-size="13" font-weight="bold" lengthAdjust="spacing" textLength="7" x="45.5" y="209.417">3</text><text fill="#000000" font-family="sans-serif" font-size="13" lengthAdjust="spacing" textLength="211" x="56.5" y="209.417">asks to present in order of popularity</text><line style="stroke:#181818;stroke-width:1.0;stroke-dasharray:2.0,2.0;" x1="296.5" x2="338.5" y1="244.625" y2="244.625"/><line style="stroke:#181818;stroke-width:1.0;stroke-dasharray:2.0,2.0;" x1="338.5" x2="338.5" y1="244.625" y2="257.625"/><line style="stroke:#181818;stroke-width:1.0;stroke-dasharray:2.0,2.0;" x1="297.5" x2="338.5" y1="257.625" y2="257.625"/><polygon fill="#181818" points="307.5,253.625,297.5,257.625,307.5,261.625,303.5,257.625" style="stroke:#181818;stroke-width:1.0;"/><text fill="#000000" font-family="sans-serif" font-size="13" font-weight="bold" lengthAdjust="spacing" textLength="7" x="303.5" y="239.7686">4</text><text fill="#000000" font-family="sans-serif" font-size="13" lengthAdjust="spacing" textLength="243" x="314.5" y="239.7686">sorts the list of posts in order of popularity</text><polygon fill="#181818" points="49.5,283.9766,39.5,287.9766,49.5,291.9766,45.5,287.9766" style="stroke:#181818;stroke-width:1.0;"/><line style="stroke:#181818;stroke-width:1.0;" x1="43.5" x2="290.5" y1="287.9766" y2="287.9766"/><text fill="#000000" font-family="sans-serif" font-size="13" font-weight="bold" lengthAdjust="spacing" textLength="7" x="55.5" y="283.1201">5</text><text fill="#000000" font-family="sans-serif" font-size="13" lengthAdjust="spacing" textLength="213" x="66.5" y="283.1201">display the list of most popular posts</text><!--SRC=[ZP11ReGm34NtEON5gbrm0HPTJNUjL8aJkE21Y2HEOzEAspV0GASLGlKcZlB_ytTai25YGW-U0pTzOa-WQIGZ-ql4Pi2EQfqSGQ96CNJkNY0zjlnbGmTNT4B6gDKihITHyb3JnqYX8RXOx6RvGrrV7g645oiARnn7XocVeiRWg1n6_qufzuroWkALvci1AF3ie-E9oEInQXiRCIWKrJfdKQpjuhMVgFHZCLi7vTEMhCgMGK0Pt1n5UuAOOuY1N3jYOyAjRkOoStPc1QsLw72IXRBW-7f7Q-cGTneg9XBA6ze0d5fAAt7vBglJlqFkNE6a1_dE-7znHol_8lfCt23dwty3]--></g></svg>