<?xml version="1.0" encoding="UTF-8" standalone="no"?><svg xmlns="http://www.w3.org/2000/svg" xmlns:xlink="http://www.w3.org/1999/xlink" contentStyleType="text/css" height="449px" preserveAspectRatio="none" style="width:372px;height:449px;background:#FFFFFF;" version="1.1" viewBox="0 0 372 449" width="372px" zoomAndPan="magnify"><defs/><g><!--cluster DeploymentMachine--><g id="cluster_DeploymentMachine"><polygon fill="none" points="16,16,26,6,355,6,355,422,345,432,16,432,16,16" style="stroke:#181818;stroke-width:1.0;"/><line style="stroke:#181818;stroke-width:1.0;" x1="345" x2="355" y1="16" y2="6"/><line style="stroke:#181818;stroke-width:1.0;" x1="16" x2="345" y1="16" y2="16"/><line style="stroke:#181818;stroke-width:1.0;" x1="345" x2="345" y1="16" y2="432"/><text fill="#000000" font-family="sans-serif" font-size="14" font-style="italic" lengthAdjust="spacing" textLength="56" x="153.5" y="33.5332">«device»</text><text fill="#000000" font-family="sans-serif" font-size="14" font-weight="bold" lengthAdjust="spacing" textLength="143" x="110" y="51.1426">DeploymentMachine</text></g><!--entity MySQL--><g id="elem_MySQL"><polygon fill="#F1F1F1" points="212.5,361,222.5,351,327.5,351,327.5,406.2188,317.5,416.2188,212.5,416.2188,212.5,361" style="stroke:#181818;stroke-width:0.5;"/><line style="stroke:#181818;stroke-width:0.5;" x1="317.5" x2="327.5" y1="361" y2="351"/><line style="stroke:#181818;stroke-width:0.5;" x1="212.5" x2="317.5" y1="361" y2="361"/><line style="stroke:#181818;stroke-width:0.5;" x1="317.5" x2="317.5" y1="361" y2="416.2188"/><text fill="#000000" font-family="sans-serif" font-size="14" font-style="italic" lengthAdjust="spacing" textLength="75" x="227.5" y="385.5332">«container»</text><text fill="#000000" font-family="sans-serif" font-size="14" lengthAdjust="spacing" textLength="46" x="242" y="403.1426">MySQL</text></g><!--entity Adminer--><g id="elem_Adminer"><polygon fill="#F1F1F1" points="221.5,218,231.5,208,336.5,208,336.5,263.2188,326.5,273.2188,221.5,273.2188,221.5,218" style="stroke:#181818;stroke-width:0.5;"/><line style="stroke:#181818;stroke-width:0.5;" x1="326.5" x2="336.5" y1="218" y2="208"/><line style="stroke:#181818;stroke-width:0.5;" x1="221.5" x2="326.5" y1="218" y2="218"/><line style="stroke:#181818;stroke-width:0.5;" x1="326.5" x2="326.5" y1="218" y2="273.2188"/><text fill="#000000" font-family="sans-serif" font-size="14" font-style="italic" lengthAdjust="spacing" textLength="75" x="236.5" y="242.5332">«container»</text><text fill="#000000" font-family="sans-serif" font-size="14" lengthAdjust="spacing" textLength="52" x="248" y="260.1426">Adminer</text></g><!--entity Redis--><g id="elem_Redis"><polygon fill="#F1F1F1" points="54.5,361,64.5,351,169.5,351,169.5,406.2188,159.5,416.2188,54.5,416.2188,54.5,361" style="stroke:#181818;stroke-width:0.5;"/><line style="stroke:#181818;stroke-width:0.5;" x1="159.5" x2="169.5" y1="361" y2="351"/><line style="stroke:#181818;stroke-width:0.5;" x1="54.5" x2="159.5" y1="361" y2="361"/><line style="stroke:#181818;stroke-width:0.5;" x1="159.5" x2="159.5" y1="361" y2="416.2188"/><text fill="#000000" font-family="sans-serif" font-size="14" font-style="italic" lengthAdjust="spacing" textLength="75" x="69.5" y="385.5332">«container»</text><text fill="#000000" font-family="sans-serif" font-size="14" lengthAdjust="spacing" textLength="36" x="89" y="403.1426">Redis</text></g><!--entity Backend--><g id="elem_Backend"><polygon fill="#F1F1F1" points="41,218,51,208,183,208,183,263.2188,173,273.2188,41,273.2188,41,218" style="stroke:#181818;stroke-width:0.5;"/><line style="stroke:#181818;stroke-width:0.5;" x1="173" x2="183" y1="218" y2="208"/><line style="stroke:#181818;stroke-width:0.5;" x1="41" x2="173" y1="218" y2="218"/><line style="stroke:#181818;stroke-width:0.5;" x1="173" x2="173" y1="218" y2="273.2188"/><text fill="#000000" font-family="sans-serif" font-size="14" font-style="italic" lengthAdjust="spacing" textLength="102" x="56" y="242.5332">«node process»</text><text fill="#000000" font-family="sans-serif" font-size="14" lengthAdjust="spacing" textLength="55" x="79.5" y="260.1426">Backend</text></g><!--entity Frontend--><g id="elem_Frontend"><polygon fill="#F1F1F1" points="32,75,42,65,174,65,174,120.2188,164,130.2188,32,130.2188,32,75" style="stroke:#181818;stroke-width:0.5;"/><line style="stroke:#181818;stroke-width:0.5;" x1="164" x2="174" y1="75" y2="65"/><line style="stroke:#181818;stroke-width:0.5;" x1="32" x2="164" y1="75" y2="75"/><line style="stroke:#181818;stroke-width:0.5;" x1="164" x2="164" y1="75" y2="130.2188"/><text fill="#000000" font-family="sans-serif" font-size="14" font-style="italic" lengthAdjust="spacing" textLength="102" x="47" y="99.5332">«node process»</text><text fill="#000000" font-family="sans-serif" font-size="14" lengthAdjust="spacing" textLength="58" x="69" y="117.1426">Frontend</text></g><!--entity Browser--><g id="elem_Browser"><polygon fill="#F1F1F1" points="233,75,243,65,339,65,339,120.2188,329,130.2188,233,130.2188,233,75" style="stroke:#181818;stroke-width:0.5;"/><line style="stroke:#181818;stroke-width:0.5;" x1="329" x2="339" y1="75" y2="65"/><line style="stroke:#181818;stroke-width:0.5;" x1="233" x2="329" y1="75" y2="75"/><line style="stroke:#181818;stroke-width:0.5;" x1="329" x2="329" y1="75" y2="130.2188"/><text fill="#000000" font-family="sans-serif" font-size="14" font-style="italic" lengthAdjust="spacing" textLength="66" x="248" y="99.5332">«process»</text><text fill="#000000" font-family="sans-serif" font-size="14" lengthAdjust="spacing" textLength="51" x="255.5" y="117.1426">Browser</text></g><!--link Frontend to Backend--><g id="link_Frontend_Backend"><path d="M105.02,130.14 C106.5,153.36 108.51,184.77 109.99,207.96 " fill="none" id="Frontend-Backend" style="stroke:#181818;stroke-width:1.0;"/><text fill="#000000" font-family="sans-serif" font-size="13" lengthAdjust="spacing" textLength="22" x="110" y="174.4951">http</text><text fill="#000000" font-family="sans-serif" font-size="13" lengthAdjust="spacing" textLength="28" x="78.6879" y="197.1074">5001</text></g><!--link Backend to MySQL--><g id="link_Backend_MySQL"><path d="M147.46,273.14 C173.48,296.36 208.67,327.77 234.66,350.96 " fill="none" id="Backend-MySQL" style="stroke:#181818;stroke-width:1.0;"/><text fill="#000000" font-family="sans-serif" font-size="13" lengthAdjust="spacing" textLength="32" x="201" y="317.4951">tcp/ip</text><text fill="#000000" font-family="sans-serif" font-size="13" lengthAdjust="spacing" textLength="28" x="196.4836" y="340.1074">3306</text></g><!--link Backend to Redis--><g id="link_Backend_Redis"><path d="M112,273.14 C112,296.36 112,327.77 112,350.96 " fill="none" id="Backend-Redis" style="stroke:#181818;stroke-width:1.0;"/><text fill="#000000" font-family="sans-serif" font-size="13" lengthAdjust="spacing" textLength="32" x="113" y="317.4951">tcp/ip</text><text fill="#000000" font-family="sans-serif" font-size="13" lengthAdjust="spacing" textLength="28" x="81.1125" y="340.1074">6379</text></g><!--link Adminer to MySQL--><g id="link_Adminer_MySQL"><path d="M276.98,273.14 C275.5,296.36 273.49,327.77 272.01,350.96 " fill="none" id="Adminer-MySQL" style="stroke:#181818;stroke-width:1.0;"/><text fill="#000000" font-family="sans-serif" font-size="13" lengthAdjust="spacing" textLength="32" x="276" y="317.4951">tcp/ip</text><text fill="#000000" font-family="sans-serif" font-size="13" lengthAdjust="spacing" textLength="28" x="241.5371" y="340.1074">3306</text></g><!--link Frontend to Browser--><g id="link_Frontend_Browser"><path d="M174.01,97.5 C193.61,97.5 214.52,97.5 232.9,97.5 " fill="none" id="Frontend-Browser" style="stroke:#181818;stroke-width:1.0;"/><text fill="#000000" font-family="sans-serif" font-size="13" lengthAdjust="spacing" textLength="22" x="192.5" y="90.9951">http</text><text fill="#000000" font-family="sans-serif" font-size="13" lengthAdjust="spacing" textLength="28" x="182.1125" y="111.7639">3000</text></g><!--link Browser to Adminer--><g id="link_Browser_Adminer"><path d="M284.43,130.14 C283.28,153.36 281.72,184.77 280.57,207.96 " fill="none" id="Browser-Adminer" style="stroke:#181818;stroke-width:1.0;"/><text fill="#000000" font-family="sans-serif" font-size="13" lengthAdjust="spacing" textLength="22" x="283" y="174.4951">http</text><text fill="#000000" font-family="sans-serif" font-size="13" lengthAdjust="spacing" textLength="28" x="250.0063" y="197.1074">8080</text></g><!--SRC=[VP3H2e8m58RlVOgnUsaXcOa8HNIL5zKJo7R2aMxYHY7HkxUfCuniTzltxPpp7o4Pe3tKfMmh43hBQS45e2HXSESKqXGzFMIEi5xMNav7mwWKEZTQawRUXsvPPTzc-HaOLxDqbzCR26PuTwqRIK6fYN9epCzvPyI-Z_2Aa2LsHMDKQ5ttbkjZfI0W8UvJnKZJUi5_I66mtk1- -Adaylwjr6Thv4Drc_aQsG6_XAksPGWXU0mo6TkPnef8PAoX_I2zl3S0]--></g></svg>